<?xml version="1.0" standalone="no"?>
<!DOCTYPE svg PUBLIC "-//W3C//DTD SVG 20010904//EN"
 "http://www.w3.org/TR/2001/REC-SVG-20010904/DTD/svg10.dtd">
<svg version="1.0" xmlns="http://www.w3.org/2000/svg"
 width="1024.000000pt" height="1024.000000pt" viewBox="0 0 1024.000000 1024.000000"
 preserveAspectRatio="xMidYMid meet">

<g transform="translate(0.000000,1024.000000) scale(0.100000,-0.100000)"
fill="#000000" stroke="none">
<path d="M4960 8600 c-171 -22 -381 -92 -545 -183 -694 -385 -1263 -1210
-1569 -2277 -43 -151 -104 -418 -126 -550 -21 -129 -18 -122 -50 -105 -45 23
-86 19 -120 -12 -29 -26 -32 -35 -45 -148 -35 -290 -46 -713 -24 -960 36 -429
131 -779 300 -1112 129 -256 270 -451 479 -667 336 -347 729 -587 1161 -710
239 -68 375 -88 649 -93 192 -4 272 -2 370 11 291 38 537 113 795 240 281 139
474 276 694 490 486 476 753 1054 832 1801 34 326 -9 1145 -65 1230 -30 45
-54 51 -136 30 -25 -6 -25 -6 -44 102 -28 165 -107 466 -179 683 -232 695
-572 1272 -981 1668 -307 297 -616 472 -957 543 -110 22 -331 32 -439 19z
m402 -221 c645 -127 1255 -760 1653 -1716 84 -201 193 -524 244 -723 32 -122
101 -459 101 -492 0 -3 -74 -65 -164 -137 l-164 -132 -259 198 c-142 108 -307
234 -367 280 -118 90 -146 99 -198 65 -32 -21 -366 -334 -725 -679 -138 -134
-254 -243 -257 -243 -3 0 -6 542 -6 1205 0 663 3 1205 8 1204 4 -1 34 -31 67
-68 73 -81 398 -433 442 -478 65 -68 173 -27 173 67 0 38 -6 48 -88 133 -49
51 -198 211 -333 357 -134 145 -260 281 -280 302 -31 32 -42 38 -78 38 -39 0
-49 -6 -101 -57 -139 -138 -664 -710 -678 -739 -31 -65 19 -139 93 -136 20 1
44 7 54 14 10 7 127 132 261 278 133 146 249 272 256 280 12 12 14 -162 14
-1175 l0 -1189 -398 397 c-392 391 -399 397 -438 397 -44 0 -36 5 -611 -388
l-253 -173 -212 130 c-117 71 -218 133 -225 138 -30 21 86 568 191 902 232
734 605 1353 1049 1739 402 351 809 483 1229 401z m1278 -3148 c302 -233 356
-271 385 -271 36 0 45 6 378 263 71 54 131 96 134 94 13 -13 34 -288 39 -512
15 -582 -81 -1052 -301 -1484 -199 -390 -499 -723 -875 -971 -125 -82 -387
-210 -525 -255 -613 -203 -1250 -153 -1829 143 -276 141 -566 371 -757 603
-284 343 -473 736 -558 1164 -48 240 -56 340 -55 725 1 201 5 395 10 432 l9
67 280 -174 c154 -96 299 -182 322 -191 40 -16 44 -15 80 4 37 19 684 461 757
517 l37 28 197 -194 c108 -107 297 -293 419 -413 l221 -219 -169 -166 c-157
-154 -169 -169 -169 -202 0 -44 6 -52 204 -273 l159 -178 -19 -31 c-273 -457
-290 -496 -240 -554 20 -23 32 -28 71 -28 38 0 51 5 68 25 12 14 93 150 181
303 140 245 158 281 152 309 -4 23 -48 80 -147 193 -78 88 -153 175 -167 194
l-26 33 75 72 c41 39 193 186 339 326 828 796 941 902 955 896 7 -2 172 -127
365 -275z"/>
</g>
</svg>
