<svg xmlns="http://www.w3.org/2000/svg" viewBox="0 0 100 100">
  <path d="m86.797 53.297c1.9766-5.3359-0.29688-11.508-4.9844-14.164 0.53906-3.8203-1.0547-7.8984-4.1328-10.289-0.88281-0.6875-1.875-1.2188-2.9297-1.5938 0.71094-4.5938-0.85156-9.4688-4.1406-12.664-3.7891-3.6797-10.094-4.7109-15.344-2.4922-2.3047 0.96875-4.0938 2.4844-5.2734 4.3359-1.1719-1.8594-2.9688-3.3672-5.2734-4.3359-5.2422-2.2188-11.555-1.1875-15.344 2.4922-3.2891 3.1953-4.8516 8.0703-4.1406 12.664-1.0469 0.38281-2.0469 0.91406-2.9297 1.5938-3.0781 2.3906-4.6719 6.4688-4.1328 10.289-4.6875 2.6562-6.9609 8.8281-4.9844 14.164 0.60156 1.6172 1.5781 3.0547 2.7969 4.2656-1.6094 4.3281-1.4062 9.2656 0.625 13.438 2.0625 4.2422 5.8906 7.4609 10.367 8.7734 1.4844 5.3047 6.5781 9.2891 12.062 9.2891h0.13281c4.3828-0.054688 8.5859-2.7344 10.828-6.5078 2.2422 3.7734 6.4453 6.4609 10.828 6.5078h0.13281c5.4844 0 10.578-3.9844 12.047-9.2891 4.4766-1.3125 8.3047-4.5391 10.367-8.7734 2.0312-4.1719 2.2422-9.1016 0.625-13.438 1.2188-1.2109 2.1953-2.6484 2.7969-4.2656zm-47.656 32.641h-0.09375c-4.2891 0-8.4062-3.4453-9.2031-7.7188-0.11719-0.61719-0.58594-1.1016-1.1875-1.2344-3.9141-0.89062-7.4453-3.7031-9.2188-7.3438-1.4922-3.0625-1.75-6.7578-0.79688-10.047 1.9844 1.1562 4.2578 1.8203 6.5547 1.8203 0.78125 0 1.5703-0.078124 2.3438-0.23437 0.84375-0.17188 1.3906-1 1.2109-1.8438-0.17188-0.84375-1-1.3906-1.8438-1.2109-2.6797 0.55469-5.5938-0.27344-7.7812-1.9609-0.14062-0.1875-0.32031-0.34375-0.54688-0.45312-1.0859-0.96094-1.9453-2.1484-2.4375-3.4844-1.5391-4.1562 0.52344-9.1797 4.4219-10.758 0.73438-0.29688 1.1328-1.1016 0.91406-1.8672-0.82812-2.9688 0.3125-6.3672 2.7656-8.2734 2.4609-1.9141 6.1016-2.1953 8.8359-0.69531 0.75781 0.41406 1.7031 0.13281 2.125-0.61719 0.41406-0.75781 0.14062-1.7031-0.61719-2.125-1.8984-1.0391-4.1016-1.4609-6.2656-1.2891-0.47656-3.5234 0.76563-7.3438 3.2578-9.7656 2.8672-2.7891 7.8906-3.5703 11.945-1.8516 3.1172 1.3047 4.9141 3.8203 4.9141 6.8906v56.094c-0.74219 4.2734-4.9766 7.9141-9.2969 7.9688zm41.422-16.305c-1.7734 3.6406-5.3047 6.4531-9.2109 7.3438-0.60937 0.14063-1.0781 0.625-1.1875 1.2344-0.79687 4.2812-4.9141 7.7188-9.2031 7.7188h-0.09375c-4.3203-0.054688-8.5547-3.6875-9.2969-7.9688v-56.086c0-3.0625 1.7969-5.5859 4.9219-6.9062 4.0547-1.7109 9.0781-0.92969 11.945 1.8516 2.4922 2.4219 3.7266 6.2344 3.2578 9.7656-2.1641-0.17188-4.3672 0.25-6.2656 1.2891-0.75781 0.41406-1.0312 1.3672-0.61719 2.125s1.3594 1.0312 2.125 0.61719c2.7344-1.5 6.375-1.2188 8.8359 0.69531 2.4531 1.9062 3.5938 5.3047 2.7656 8.2734-0.21094 0.76562 0.17969 1.5703 0.91406 1.8672 3.8906 1.5781 5.9531 6.6094 4.4219 10.758-0.49219 1.3359-1.3516 2.5156-2.4375 3.4766-0.22656 0.10938-0.40625 0.27344-0.54688 0.46094-2.1875 1.6797-5.0938 2.5156-7.7812 1.9609-0.85156-0.17969-1.6719 0.36719-1.8438 1.2109s0.36719 1.6719 1.2109 1.8438c0.77344 0.15625 1.5547 0.23438 2.3438 0.23438 2.2969 0 4.5703-0.66406 6.5547-1.8203 0.9375 3.2969 0.67969 6.9922-0.8125 10.055zm-9.8906-26.078c-0.66406 0.55469-1.6484 0.46094-2.2031-0.20313-1.0938-1.3125-3.3281-1.5625-4.6875-0.53125s-1.7188 3.25-0.75 4.6562c0.49219 0.71094 0.3125 1.6875-0.39844 2.1719-0.27344 0.1875-0.57812 0.27344-0.88281 0.27344-0.5 0-0.98438-0.23438-1.2891-0.67969-1.9219-2.7891-1.2578-6.8672 1.4375-8.9141 2.6953-2.0469 6.8047-1.5781 8.9766 1.0234 0.55469 0.66406 0.46094 1.6484-0.20312 2.2031zm-38.594 7.6953c-0.34375 0-0.69531-0.023438-1.0391-0.070312-0.85156-0.11719-1.4531-0.90625-1.3359-1.7578s0.89844-1.4531 1.7578-1.3359c1.9375 0.26562 4.0469-0.77344 5.0078-2.4766s0.78125-4.0469-0.4375-5.5703c-0.53906-0.67187-0.42969-1.6562 0.24219-2.1953 0.67187-0.53906 1.6562-0.42969 2.1953 0.24219 2.0156 2.5234 2.3125 6.25 0.71875 9.0625-1.4219 2.5078-4.2422 4.1016-7.1094 4.1016zm37.312 17.758c-0.007813 0.85938-0.70312 1.5469-1.5625 1.5469h-0.015625c-4.4688-0.039063-8.75-3.3203-9.9453-7.6328-0.23438-0.82812 0.25781-1.6953 1.0859-1.9219 0.83594-0.22656 1.6953 0.25781 1.9219 1.0859 0.83594 3.0156 3.8359 5.3125 6.9688 5.3438 0.86719 0.007812 1.5547 0.71094 1.5469 1.5781zm-27.648-5.2188c0.15625 0.85156-0.41406 1.6641-1.2656 1.8125-1.3125 0.23438-2.5391 0.97656-3.3672 2.0234s-1.25 2.4141-1.1719 3.75c0.054688 0.85938-0.60156 1.6016-1.4609 1.6562h-0.10156c-0.82031 0-1.5078-0.64062-1.5547-1.4688-0.125-2.0859 0.53906-4.2266 1.8281-5.875 1.2891-1.6484 3.2109-2.7969 5.2734-3.1719 0.85156-0.14844 1.6719 0.42188 1.8203 1.2734z"/>
</svg>