<svg xmlns="http://www.w3.org/2000/svg" viewBox="0 0 90 90" xml:space="preserve">
  <g>
    <path d="M71.5,76.583c-20.36,0-40.722,0-61.083,0c0-15.639,0-31.277,0-46.917c0-1.612-2.5-1.612-2.5,0c0,16.056,0,32.111,0,48.167   c0,0.368,0.134,0.647,0.335,0.848c0.01,0.013,0.022,0.023,0.033,0.035c0.012,0.011,0.022,0.022,0.035,0.032   c0.2,0.201,0.48,0.335,0.848,0.335c20.778,0,41.556,0,62.333,0C73.112,79.083,73.112,76.583,71.5,76.583z"/>
    <path d="M20.514,59.084c15.188,0,30.377,0,45.565,0c-1.363,1.363-2.727,2.727-4.09,4.09c-0.57,0.571,0.313,1.455,0.885,0.885   c1.719-1.72,3.438-3.438,5.156-5.158c0.002-0.002,0.003-0.006,0.005-0.008c0.01-0.01,0.015-0.023,0.023-0.035   c0.192-0.229,0.192-0.567,0-0.797c-0.009-0.012-0.014-0.025-0.023-0.035c-0.002-0.002-0.003-0.006-0.005-0.008   c-1.719-1.72-3.438-3.438-5.156-5.158c-0.571-0.57-1.455,0.314-0.885,0.885c1.363,1.363,2.727,2.727,4.09,4.09   c-15.188,0-30.377,0-45.565,0C19.708,57.834,19.708,59.084,20.514,59.084z"/>
  </g>
</svg>