<svg xmlns="http://www.w3.org/2000/svg" viewBox="0 0 100 100">
  <path d="m 29.994,34 c -7.653,0 -14.095,5.423 -15.651,12.625 -2.053,-0.078 -4.173,-0.031 -6.248,-0.031 -0.062,0 -0.125,0 -0.187,0 -1.047,0.049 -1.955,1.046 -1.906,2.094 0.049,1.047 1.046,1.955 2.093,1.906 l 5.935,0 c 0.318,8.536 7.355,15.406 15.963,15.406 8.810,0 16.288,-7.192 15.994,-16 -0.067,-2.020 2.726,-3.103 3.999,-2.938 1.977,0.257 4.027,0.877 3.999,2.938 -0.121,8.812 7.185,16 15.994,16 8.609,0 15.645,-6.870 15.963,-15.406 0.010,0 0.021,0 0.031,0 l 5.998,0 c 1.056,0.015 2.028,-0.943 2.028,-2 0,-1.057 -0.972,-2.015 -2.028,-2 l -5.998,0 c -0.062,0 -0.125,0 -0.187,0 -0.053,0.01 -0.105,0.019 -0.156,0.031 -1.555,-7.202 -7.998,-12.625 -15.651,-12.625 -6.900,0 -12.791,4.417 -15.026,10.563 -1.424,-0.946 -3.137,-1.500 -4.967,-1.500 -1.834,0 -3.541,0.556 -4.967,1.500 -2.235,-6.146 -8.126,-10.563 -15.026,-10.563 z m 0,4 c 6.649,0 11.996,5.349 11.996,12 0,6.651 -5.347,12 -11.996,12 -6.649,0 -11.996,-5.349 -11.996,-12 0,-6.651 5.347,-12 11.996,-12 z m 39.986,0 c 6.649,0 11.996,5.349 11.996,12 0,6.651 -5.347,12 -11.996,12 -6.649,0 -11.996,-5.349 -11.996,-12 0,-6.651 5.347,-12 11.996,-12 z"/>
</svg>